<?xml version="1.0" encoding="UTF-8" standalone="no"?>
<!-- Created with Inkscape (http://www.inkscape.org/) -->

<svg
   width="133.39899mm"
   height="154.51601mm"
   viewBox="0 0 133.39899 154.51601"
   version="1.1"
   id="svg1"
   inkscape:export-filename="bitmap.svg"
   inkscape:export-xdpi="96"
   inkscape:export-ydpi="96"
   xmlns:inkscape="http://www.inkscape.org/namespaces/inkscape"
   xmlns:sodipodi="http://sodipodi.sourceforge.net/DTD/sodipodi-0.dtd"
   xmlns="http://www.w3.org/2000/svg"
   xmlns:svg="http://www.w3.org/2000/svg">
  <sodipodi:namedview
     id="namedview1"
     pagecolor="#505050"
     bordercolor="#eeeeee"
     borderopacity="1"
     inkscape:showpageshadow="0"
     inkscape:pageopacity="0"
     inkscape:pagecheckerboard="0"
     inkscape:deskcolor="#505050"
     inkscape:document-units="mm"
     inkscape:export-bgcolor="#00000000">
    <inkscape:page
       x="0"
       y="0"
       width="133.39899"
       height="154.51601"
       id="page2"
       margin="0"
       bleed="0" />
  </sodipodi:namedview>
  <defs
     id="defs1" />
  <g
     inkscape:label="Capa 1"
     inkscape:groupmode="layer"
     id="layer1"
     transform="translate(-15.737505,-11.148085)">
    <path
       style="fill:#44549c;fill-opacity:1;stroke-width:0.0971572"
       d="M 89.715833,38.85791 C 70.25329,52.59863 73.639028,47.940801 61.453429,58.33538 48.696162,67.53993 48.29992,93.84754 39.646023,83.37785 31.189013,73.14636 7.826609,36.693085 38.948186,17.989187 71.837582,-1.777162 105.30616,26.328592 89.715833,38.85791 Z"
       id="path7"
       sodipodi:nodetypes="csssc" />
    <path
       style="fill:#44549c;fill-opacity:1;stroke-width:0.0971572"
       d="M 19.681238,137.95426 C 39.14378,124.21354 35.75804,128.87137 47.94364,118.47679 60.70091,109.27224 61.09715,82.964626 69.75104,93.434316 78.20805,103.66581 101.57045,140.11908 70.44887,158.82298 37.55949,178.58933 4.090908,150.48357 19.681238,137.95426 Z"
       id="path7-8"
       sodipodi:nodetypes="csssc" />
    <path
       style="fill:#44549c;fill-opacity:1;stroke-width:0.0971572"
       d="m 82.68331,73.72649 c 19.46255,13.74072 16.07681,9.08289 28.26241,19.47747 12.75727,9.20455 13.15351,35.51216 21.8074,25.04247 8.45701,-10.23149 31.81941,-46.68476 0.69783,-65.38866 -32.88938,-19.766351 -66.35796,8.33941 -50.76764,20.86872 z"
       id="path7-8-1"
       sodipodi:nodetypes="csssc" />
  </g>
</svg>
