<?xml version="1.0" encoding="UTF-8" standalone="no"?>
<svg
   width="210mm"
   height="297mm"
   viewBox="0 0 210 297"
   version="1.1"
   xmlns="http://www.w3.org/2000/svg">
   
  <g id="fondoGrupoDegradado" transform="translate(-11.4,33.600001)">
    <!-- Rectángulo de fondo -->
    <rect
       style="opacity:1;fill:#1d2a62;fill-opacity:1"
       width="357.68347"
       height="416.42752"
       x="-50.58091"
       y="-99.550049" />
    
    <!-- Path 1 - Color sólido azul -->
    <path
       style="opacity:1;fill:#243584;fill-opacity:1"
       d="M 46.472497,116.30664 C 45.341126,88.870892 44.492598,62.000835 62.312052,47.010141 80.131507,32.019446 116.61749,28.908238 138.6793,38.525113 c 22.06181,9.616875 29.69841,31.961003 27.01127,53.457256 -2.68714,21.496251 -15.69765,42.143361 -16.26321,62.225391 -0.56557,20.08202 11.31359,39.59778 30.97143,43.84031 19.65785,4.24253 47.09304,-6.78812 71.70057,-5.93946 24.60753,0.84865 46.38599,13.57632 48.78998,35.35552 2.40398,21.77921 -14.56623,52.60843 -47.23504,64.91203 -32.66882,12.30359 -81.03396,6.08117 -117.52091,-12.44533 C 99.646437,261.40433 75.039612,230.57509 62.028832,201.15917 49.018052,171.74325 47.603868,143.74238 46.472497,116.30664 Z"
       transform="matrix(0.61090976,0,0,0.65193498,-15.209895,63.256405)" />
    
    <!-- Path 2 - Color sólido azul con opacidad -->
    <path
       style="fill:#243584;fill-opacity:0.7"
       d="M 46.472497,116.30664 C 45.341126,88.870892 44.492598,62.000835 62.312052,47.010141 80.131507,32.019446 116.61749,28.908238 138.6793,38.525113 c 22.06181,9.616875 29.69841,31.961003 27.01127,53.457256 -2.68714,21.496251 -15.69765,42.143361 -16.26321,62.225391 -0.56557,20.08202 11.31359,39.59778 30.97143,43.84031 19.65785,4.24253 47.09304,-6.78812 71.70057,-5.93946 24.60753,0.84865 46.38599,13.57632 48.78998,35.35552 2.40398,21.77921 -14.56623,52.60843 -47.23504,64.91203 -32.66882,12.30359 -81.03396,6.08117 -117.52091,-12.44533 C 99.646437,261.40433 75.039612,230.57509 62.028832,201.15917 49.018052,171.74325 47.603868,143.74238 46.472497,116.30664 Z"
       transform="matrix(0,0.52444526,-0.4571463,0,147.18753,-84.646653)" />
    
    <!-- Path 3 - Color sólido azul -->
    <path
       style="opacity:1;fill:#243584;fill-opacity:1"
       d="m 352.50831,134.69141 c 10.46518,1.41422 30.26416,-1.97989 38.608,-20.78928 8.34384,-18.809382 5.23263,-53.032667 -12.02109,-77.781557 -17.25373,-24.748891 -48.64866,-40.0220963 -76.08463,-43.6989693 -27.43597,-3.6768727 -50.91144,4.2425638 -69.15493,17.6777823 -18.24348,13.435218 -31.25399,32.385303 -36.06228,54.023013 -4.80829,21.63771 -1.41424,45.961701 8.62684,58.548211 10.04108,12.5865 26.72847,13.43501 39.73932,5.51525 13.01085,-7.91976 22.34448,-24.60715 33.65832,-35.496646 11.31384,-10.889493 24.6072,-15.980565 34.93102,-10.323541 10.32383,5.657025 17.67759,22.061567 21.92024,33.375337 4.24266,11.31377 5.37401,17.53619 15.83919,18.9504 z"
       transform="matrix(0.80475447,0,0,0.85804092,-53.443499,59.041876)" />
    
    <!-- Path 4 - Color sólido azul -->
    <path
       style="fill:#243584;fill-opacity:1"
       d="m 352.50831,134.69141 c 10.46518,1.41422 30.26416,-1.97989 38.608,-20.78928 8.34384,-18.809382 5.23263,-53.032667 -12.02109,-77.781557 -17.25373,-24.748891 -48.64866,-40.0220963 -76.08463,-43.6989693 -27.43597,-3.6768727 -50.91144,4.2425638 -69.15493,17.6777823 -18.24348,13.435218 -31.25399,32.385303 -36.06228,54.023013 -4.80829,21.63771 -1.41424,45.961701 8.62684,58.548211 10.04108,12.5865 26.72847,13.43501 39.73932,5.51525 13.01085,-7.91976 22.34448,-24.60715 33.65832,-35.496646 11.31384,-10.889493 24.6072,-15.980565 34.93102,-10.323541 10.32383,5.657025 17.67759,22.061567 21.92024,33.375337 4.24266,11.31377 5.37401,17.53619 15.83919,18.9504 z"
       transform="matrix(0,-0.80475447,-0.85804092,0,242.98437,200.87134)" />
    
    <!-- Círculo 1 - Color sólido azul -->
    <ellipse
       style="opacity:1;fill:#243584;fill-opacity:1"
       cx="99.646919"
       cy="47.01017"
       rx="17.819092"
       ry="18.137289" />
    
    <!-- Círculo 2 - Color sólido azul -->
    <ellipse
       style="fill:#243584;fill-opacity:1"
       cx="182.80879"
       cy="171.64851"
       rx="17.819092"
       ry="18.137289" />
  </g>
</svg>